<svg width="223" height="46" viewBox="0 0 223 46" fill="none" xmlns="http://www.w3.org/2000/svg">
<g clip-path="url(#clip0_31_26)" filter="url(#filter0_d_31_26)">
<path d="M11.5391 3.38318H18.7741V5.31566H16.3721V32.7035H14.2176V5.31566H11.5391V3.38318Z" fill="white"/>
<path d="M29.0866 7.41467C29.1254 7.41467 29.1448 7.59237 29.1448 7.94777C29.1448 8.30317 29.14 8.65857 29.1303 9.01396V9.5304C28.3636 9.5304 27.6842 9.7081 27.0922 10.0635C26.5099 10.4078 25.9374 11.0353 25.3745 11.946V32.7035H23.2054V7.71454H25.3745V10.4966C25.6268 9.51929 26.0684 8.76407 26.6992 8.23098C27.3397 7.68678 28.1355 7.41467 29.0866 7.41467Z" fill="white"/>
<path d="M33.7072 7.71451H35.8908V32.7034H33.7072V7.71451ZM33.7072 3.0166H35.8762V5.41553H33.7072V3.0166Z" fill="white"/>
<path d="M48.416 15.0281C48.416 13.0734 48.3432 11.8572 48.1976 11.3797C48.0618 10.891 47.8968 10.4745 47.7027 10.1302C47.5086 9.78592 47.1883 9.61378 46.7419 9.61378C46.2955 9.61378 45.9655 9.64709 45.752 9.71373C45.2279 9.88032 44.8446 10.3634 44.6019 11.1631C44.3593 11.9516 44.238 13.2511 44.238 15.0614V24.9903C44.238 27.1116 44.3836 28.6109 44.6747 29.4883C44.9756 30.3546 45.5385 30.7877 46.3634 30.7877C47.1883 30.7877 47.7367 30.3546 48.0084 29.4883C48.2801 28.622 48.416 27.0949 48.416 24.907V15.0281ZM44.238 9.63044C44.7524 8.23106 45.718 7.53137 47.1349 7.53137C48.1249 7.53137 48.8673 7.90898 49.3622 8.6642C49.8669 9.40831 50.1969 10.3746 50.3521 11.5629C50.5074 12.7402 50.5851 14.1618 50.5851 15.8277V24.7904C50.5851 24.8237 50.5851 24.8626 50.5851 24.907C50.5851 28.0501 50.226 30.188 49.5078 31.3208C48.7896 32.4426 47.8094 33.0034 46.5672 33.0034C46.0723 33.0034 45.6064 32.8035 45.1697 32.4037C44.7427 31.9928 44.4321 31.493 44.238 30.9044V37.1182H42.069V7.71462H44.238V9.63044Z" fill="white"/>
<path d="M65.0377 8.01438L65.0523 8.69741C65.0523 9.89687 65.5957 12.0293 66.6827 15.0945C67.43 14.0283 68.0026 12.9844 68.4005 11.9626C68.8081 10.9298 69.0119 9.78026 69.0119 8.51415C69.0119 7.24805 68.8906 6.34845 68.6479 5.81535C68.4053 5.27115 67.8327 4.99905 66.9302 4.99905C65.7559 4.99905 65.1348 5.77093 65.0668 7.31469C65.0571 7.55902 65.0474 7.72006 65.0377 7.79781C65.0377 7.86444 65.0377 7.93663 65.0377 8.01438ZM71.2974 26.6227C72.6755 29.9324 73.5101 31.9592 73.8013 32.7034H71.9962C71.7438 32.0148 71.2295 30.7598 70.4531 28.9384C69.9678 30.1934 69.468 31.093 68.9537 31.6372C68.4393 32.1814 67.9249 32.5479 67.4106 32.7367C66.9059 32.9366 66.3236 33.0365 65.6637 33.0365C64.3438 33.0365 63.2762 32.5146 62.461 31.4706C61.6458 30.4266 61.2382 28.9939 61.2382 27.1725C61.2382 25.3511 61.3983 24.0017 61.7186 23.1243C62.0486 22.2469 62.3591 21.475 62.6503 20.8086C62.9414 20.1423 63.844 18.8318 65.358 16.8771C63.7372 12.7234 62.9269 9.98572 62.9269 8.66409C62.9269 4.8991 64.3147 3.0166 67.0903 3.0166C68.711 3.0166 69.7737 3.50527 70.2784 4.48261C70.7927 5.45996 71.0499 6.82602 71.0499 8.58079C71.0499 10.3356 70.7103 11.8682 70.0309 13.1787C69.3613 14.4781 68.5169 15.8497 67.4979 17.2935C68.187 19.115 69.1138 21.4028 70.2784 24.1572C71.0645 22.2691 71.9282 20.692 72.8696 19.4259L73.8741 21.2085C73.0006 22.4524 72.1417 24.2571 71.2974 26.6227ZM69.3758 26.4395C67.9589 23.1743 66.9156 20.7254 66.246 19.0927C65.4308 20.3366 64.7611 21.5972 64.237 22.8744C63.713 24.1516 63.4461 25.6121 63.4364 27.2558C63.4364 29.7214 64.2662 30.9541 65.9257 30.9541C66.838 30.9541 67.6047 30.3433 68.2258 29.1216C68.5363 28.4886 68.9197 27.5945 69.3758 26.4395Z" fill="white"/>
<path d="M94.2807 3.38318H96.7118V32.7035H94.7466V20.1424L95.0814 8.33098L91.4275 32.0704H89.3603L85.5754 8.33098L85.9102 20.1424V32.7035H83.9304V3.38318H86.3615L90.3939 28.0055L94.2807 3.38318Z" fill="white"/>
<path d="M102.89 7.71451H105.074V32.7034H102.89V7.71451ZM102.89 3.0166H105.059V5.41553H102.89V3.0166Z" fill="white"/>
<path d="M113.421 10.1635C113.615 9.4194 114.042 8.77524 114.702 8.23104C115.372 7.67573 116.158 7.39807 117.06 7.39807C117.963 7.39807 118.705 7.82566 119.288 8.68084C119.87 9.53601 120.161 10.8188 120.161 12.5291V32.7035H117.992V12.3292C117.992 11.363 117.798 10.6688 117.41 10.2468C117.031 9.81367 116.522 9.5971 115.881 9.5971C114.241 9.5971 113.421 10.5245 113.421 12.3792V32.7035H111.252V7.7146H113.421V10.1635Z" fill="white"/>
<path d="M132.089 15.4278C132.089 13.2843 131.944 11.785 131.653 10.9298C131.371 10.0635 130.818 9.63039 129.993 9.63039C129.168 9.63039 128.615 10.0746 128.334 10.9631C128.052 11.8405 127.911 13.3676 127.911 15.5444V25.44C127.911 27.7279 128.067 29.1939 128.377 29.8381C128.697 30.4822 129.168 30.8043 129.789 30.8043C130.41 30.8043 130.852 30.6766 131.114 30.4211C131.386 30.1546 131.614 29.7159 131.798 29.1051C131.992 28.4831 132.089 27.2725 132.089 25.4733V15.4278ZM132.075 3H134.258V32.7035H132.075V30.8043C131.57 32.1926 130.604 32.8867 129.178 32.8867C127.557 32.8756 126.528 31.7705 126.092 29.5715C125.849 28.3609 125.728 26.7339 125.728 24.6904V15.9109C125.728 12.5569 126.077 10.3023 126.776 9.14727C127.484 7.99222 128.479 7.4147 129.76 7.4147C130.255 7.4147 130.711 7.62017 131.129 8.0311C131.556 8.43092 131.871 8.91959 132.075 9.49711V3Z" fill="white"/>
<path fill-rule="evenodd" clip-rule="evenodd" d="M157.384 11.0145L163.709 18.252C164.097 18.6962 164.097 19.4162 163.709 19.8604L157.384 27.0979C156.996 27.5421 156.367 27.5421 155.979 27.0979C155.591 26.6538 155.591 25.9337 155.979 25.4896L160.607 20.1935H143.13V17.9189H160.607L155.979 12.6228C155.591 12.1787 155.591 11.4586 155.979 11.0145C156.367 10.5704 156.996 10.5704 157.384 11.0145Z" fill="#EFC224"/>
<path d="M7.97516 17.9189H4V20.1934H7.97516V17.9189Z" fill="#EFC224"/>
</g>
<circle cx="203" cy="20" r="16" stroke="#33363F" stroke-width="2" stroke-linecap="round"/>
<circle cx="198" cy="15" r="1.91667" fill="#33363F" stroke="#33363F" stroke-width="0.5" stroke-linecap="round"/>
<circle cx="208" cy="15" r="1.91667" fill="#33363F" stroke="#33363F" stroke-width="0.5" stroke-linecap="round"/>
<path d="M208 25.8333C208 28.1345 205.761 30 203 30C200.239 30 198 28.1345 198 25.8333C198 23.5321 200.239 21.6666 203 21.6666C205.761 21.6666 208 23.5321 208 25.8333Z" fill="#33363F"/>
<defs>
<filter id="filter0_d_31_26" x="0" y="3" width="168" height="43" filterUnits="userSpaceOnUse" color-interpolation-filters="sRGB">
<feFlood flood-opacity="0" result="BackgroundImageFix"/>
<feColorMatrix in="SourceAlpha" type="matrix" values="0 0 0 0 0 0 0 0 0 0 0 0 0 0 0 0 0 0 127 0" result="hardAlpha"/>
<feOffset dy="4"/>
<feGaussianBlur stdDeviation="2"/>
<feComposite in2="hardAlpha" operator="out"/>
<feColorMatrix type="matrix" values="0 0 0 0 0 0 0 0 0 0 0 0 0 0 0 0 0 0 0.25 0"/>
<feBlend mode="normal" in2="BackgroundImageFix" result="effect1_dropShadow_31_26"/>
<feBlend mode="normal" in="SourceGraphic" in2="effect1_dropShadow_31_26" result="shape"/>
</filter>
<clipPath id="clip0_31_26">
<rect width="160" height="35" fill="white" transform="translate(4 3)"/>
</clipPath>
</defs>
</svg>
