<svg width="228" height="49" viewBox="0 0 228 49" fill="none" xmlns="http://www.w3.org/2000/svg">
<circle cx="208" cy="29" r="16" stroke="#33363F" stroke-width="2" stroke-linecap="round"/>
<circle cx="203" cy="24" r="1.91667" fill="#33363F" stroke="#33363F" stroke-width="0.5" stroke-linecap="round"/>
<circle cx="213" cy="24" r="1.91667" fill="#33363F" stroke="#33363F" stroke-width="0.5" stroke-linecap="round"/>
<path d="M213 34.8333C213 37.1345 210.761 39 208 39C205.239 39 203 37.1345 203 34.8333C203 32.5321 205.239 30.6666 208 30.6666C210.761 30.6666 213 32.5321 213 34.8333Z" fill="#33363F"/>
<g clip-path="url(#clip0_75_25)">
<path d="M16.5391 12.3832H23.7741V14.3157H21.3721V41.7035H19.2176V14.3157H16.5391V12.3832Z" fill="black"/>
<path d="M34.0866 16.4147C34.1254 16.4147 34.1448 16.5924 34.1448 16.9478C34.1448 17.3032 34.14 17.6586 34.1303 18.014V18.5304C33.3636 18.5304 32.6842 18.7081 32.0922 19.0635C31.5099 19.4078 30.9374 20.0353 30.3745 20.946V41.7035H28.2054V16.7145H30.3745V19.4966C30.6268 18.5193 31.0684 17.7641 31.6992 17.231C32.3397 16.6868 33.1355 16.4147 34.0866 16.4147Z" fill="black"/>
<path d="M38.7072 16.7145H40.8908V41.7034H38.7072V16.7145ZM38.7072 12.0166H40.8762V14.4155H38.7072V12.0166Z" fill="black"/>
<path d="M53.416 24.0281C53.416 22.0734 53.3432 20.8572 53.1976 20.3797C53.0618 19.891 52.8968 19.4745 52.7027 19.1302C52.5086 18.7859 52.1883 18.6138 51.7419 18.6138C51.2955 18.6138 50.9655 18.6471 50.752 18.7137C50.2279 18.8803 49.8446 19.3634 49.6019 20.1631C49.3593 20.9516 49.238 22.2511 49.238 24.0614V33.9903C49.238 36.1116 49.3836 37.6109 49.6747 38.4883C49.9756 39.3546 50.5385 39.7877 51.3634 39.7877C52.1883 39.7877 52.7367 39.3546 53.0084 38.4883C53.2801 37.622 53.416 36.0949 53.416 33.907V24.0281ZM49.238 18.6304C49.7524 17.2311 50.718 16.5314 52.1349 16.5314C53.1249 16.5314 53.8673 16.909 54.3622 17.6642C54.8669 18.4083 55.1969 19.3746 55.3521 20.5629C55.5074 21.7402 55.5851 23.1618 55.5851 24.8277V33.7904C55.5851 33.8237 55.5851 33.8626 55.5851 33.907C55.5851 37.0501 55.226 39.188 54.5078 40.3208C53.7896 41.4426 52.8094 42.0034 51.5672 42.0034C51.0723 42.0034 50.6064 41.8035 50.1697 41.4037C49.7427 40.9928 49.4321 40.493 49.238 39.9044V46.1182H47.069V16.7146H49.238V18.6304Z" fill="black"/>
<path d="M70.0377 17.0144L70.0523 17.6974C70.0523 18.8969 70.5957 21.0293 71.6827 24.0945C72.43 23.0283 73.0026 21.9844 73.4005 20.9626C73.8081 19.9298 74.0119 18.7803 74.0119 17.5142C74.0119 16.2481 73.8906 15.3485 73.6479 14.8154C73.4053 14.2712 72.8327 13.9991 71.9302 13.9991C70.7559 13.9991 70.1348 14.7709 70.0668 16.3147C70.0571 16.559 70.0474 16.7201 70.0377 16.7978C70.0377 16.8644 70.0377 16.9366 70.0377 17.0144ZM76.2974 35.6227C77.6755 38.9324 78.5101 40.9592 78.8013 41.7034H76.9962C76.7438 41.0148 76.2295 39.7598 75.4531 37.9384C74.9678 39.1934 74.468 40.093 73.9537 40.6372C73.4393 41.1814 72.9249 41.5479 72.4106 41.7367C71.9059 41.9366 71.3236 42.0365 70.6637 42.0365C69.3438 42.0365 68.2762 41.5146 67.461 40.4706C66.6458 39.4266 66.2382 37.9939 66.2382 36.1725C66.2382 34.3511 66.3983 33.0017 66.7186 32.1243C67.0486 31.2469 67.3591 30.475 67.6503 29.8086C67.9414 29.1423 68.844 27.8318 70.358 25.8771C68.7372 21.7234 67.9269 18.9857 67.9269 17.6641C67.9269 13.8991 69.3147 12.0166 72.0903 12.0166C73.711 12.0166 74.7737 12.5053 75.2784 13.4826C75.7927 14.46 76.0499 15.826 76.0499 17.5808C76.0499 19.3356 75.7103 20.8682 75.0309 22.1787C74.3613 23.4781 73.5169 24.8497 72.4979 26.2935C73.187 28.115 74.1138 30.4028 75.2784 33.1572C76.0645 31.2691 76.9282 29.692 77.8696 28.4259L78.8741 30.2085C78.0006 31.4524 77.1417 33.2571 76.2974 35.6227ZM74.3758 35.4395C72.9589 32.1743 71.9156 29.7254 71.246 28.0927C70.4308 29.3366 69.7611 30.5972 69.237 31.8744C68.713 33.1516 68.4461 34.6121 68.4364 36.2558C68.4364 38.7214 69.2662 39.9541 70.9257 39.9541C71.838 39.9541 72.6047 39.3433 73.2258 38.1216C73.5363 37.4886 73.9197 36.5945 74.3758 35.4395Z" fill="black"/>
<path d="M99.2807 12.3832H101.712V41.7035H99.7466V29.1424L100.081 17.331L96.4275 41.0704H94.3603L90.5754 17.331L90.9102 29.1424V41.7035H88.9304V12.3832H91.3615L95.3939 37.0055L99.2807 12.3832Z" fill="black"/>
<path d="M107.89 16.7145H110.074V41.7034H107.89V16.7145ZM107.89 12.0166H110.059V14.4155H107.89V12.0166Z" fill="black"/>
<path d="M118.421 19.1635C118.615 18.4194 119.042 17.7752 119.702 17.231C120.372 16.6757 121.158 16.3981 122.06 16.3981C122.963 16.3981 123.705 16.8257 124.288 17.6808C124.87 18.536 125.161 19.8188 125.161 21.5291V41.7035H122.992V21.3292C122.992 20.363 122.798 19.6688 122.41 19.2468C122.031 18.8137 121.522 18.5971 120.881 18.5971C119.241 18.5971 118.421 19.5245 118.421 21.3792V41.7035H116.252V16.7146H118.421V19.1635Z" fill="black"/>
<path d="M137.089 24.4278C137.089 22.2843 136.944 20.785 136.653 19.9298C136.371 19.0635 135.818 18.6304 134.993 18.6304C134.168 18.6304 133.615 19.0746 133.334 19.9631C133.052 20.8405 132.911 22.3676 132.911 24.5444V34.44C132.911 36.7279 133.067 38.1939 133.377 38.8381C133.697 39.4822 134.168 39.8043 134.789 39.8043C135.41 39.8043 135.852 39.6766 136.114 39.4211C136.386 39.1546 136.614 38.7159 136.798 38.1051C136.992 37.4831 137.089 36.2725 137.089 34.4733V24.4278ZM137.075 12H139.258V41.7035H137.075V39.8043C136.57 41.1926 135.604 41.8867 134.178 41.8867C132.557 41.8756 131.528 40.7705 131.092 38.5715C130.849 37.3609 130.728 35.7339 130.728 33.6904V24.9109C130.728 21.5569 131.077 19.3023 131.776 18.1473C132.484 16.9922 133.479 16.4147 134.76 16.4147C135.255 16.4147 135.711 16.6202 136.129 17.0311C136.556 17.4309 136.871 17.9196 137.075 18.4971V12Z" fill="black"/>
<path fill-rule="evenodd" clip-rule="evenodd" d="M162.384 20.0145L168.709 27.252C169.097 27.6962 169.097 28.4162 168.709 28.8604L162.384 36.0979C161.996 36.5421 161.367 36.5421 160.979 36.0979C160.591 35.6538 160.591 34.9337 160.979 34.4896L165.607 29.1935H148.13V26.9189H165.607L160.979 21.6228C160.591 21.1787 160.591 20.4586 160.979 20.0145C161.367 19.5704 161.996 19.5704 162.384 20.0145Z" fill="black"/>
<path d="M12.9752 26.9189H9V29.1934H12.9752V26.9189Z" fill="black"/>
</g>
<defs>
<clipPath id="clip0_75_25">
<rect width="160" height="35" fill="white" transform="translate(9 12)"/>
</clipPath>
</defs>
</svg>
